<svg class="icon icon-account" xmlns="http://www.w3.org/2000/svg" fill="none" viewBox="0 0 24 24">
  <path fill="currentColor" fill-rule="evenodd" clip-rule="evenodd" d="M20 21v.75c.41 0 .75-.34.75-.75H20ZM4 21h-.75c0 .41.34.75.75.75V21Zm4-5.25h8v-1.5H8v1.5ZM19.25 19v2h1.5v-2h-1.5Zm-14.5 2v-2h-1.5v2h1.5ZM16 15.75c1.8 0 3.25 1.46 3.25 3.25h1.5A4.75 4.75 0 0 0 16 14.25v1.5Zm-8-1.5A4.75 4.75 0 0 0 3.25 19h1.5c0-1.8 1.46-3.25 3.25-3.25v-1.5ZM15.25 7c0 1.8-1.46 3.25-3.25 3.25v1.5A4.75 4.75 0 0 0 16.75 7h-1.5ZM12 10.25A3.25 3.25 0 0 1 8.75 7h-1.5A4.75 4.75 0 0 0 12 11.75v-1.5ZM8.75 7c0-1.8 1.46-3.25 3.25-3.25v-1.5A4.75 4.75 0 0 0 7.25 7h1.5ZM12 3.75c1.8 0 3.25 1.46 3.25 3.25h1.5A4.75 4.75 0 0 0 12 2.25v1.5Zm-8 18h16v-1.5H4v1.5Z"></path>
</svg>