<?xml version="1.0" encoding="UTF-8"?>
<svg xmlns="http://www.w3.org/2000/svg" viewBox="0 0 102 50">
  <path d="m62.99 37.95-7.88-10.68h-3.55v16.67h3.7v-9.9l7.36 9.9h3.93V27.27h-3.56v10.68ZM80.8 30.78h-3.7v13.16h-3.56V30.78h-3.7v-3.5H80.8v3.5ZM21.99 30.77h2.57v9.66H22v3.5h8.72v-3.5h-2.57l-.02-9.66h2.6v-3.5h-8.73v3.5ZM18.25 33.51h-6.93v3.39h3.67l.4 2.6a5.2 5.2 0 0 1-8.5-4.61 5.15 5.15 0 0 1 5.14-4.5c1.1-.02 2.19.32 3.08.97l2.38-2.67a8.82 8.82 0 0 0-5.46-1.9 8.82 8.82 0 0 0-6.16 2.6 8.72 8.72 0 0 0 6.16 14.9 8.95 8.95 0 0 0 7.1-3.61l.18-.21-1.04-6.93-.02-.03ZM93.35 34.75c-.9-.55-2.16-.87-3.28-1.1l-.52-.14a6.25 6.25 0 0 1-2.08-.77c-.37-.26-.5-.5-.49-.92.01-.44.39-.9.94-1.14.43-.17.89-.25 1.35-.24 1.25.03 2.45.52 3.55 1.45l.12.1 2.12-3.05a9.66 9.66 0 0 0-5.68-2.15 6.96 6.96 0 0 0-2.94.57 4.81 4.81 0 0 0-3.15 4.2l-.01.2a4.62 4.62 0 0 0 2.37 4.22c.77.43 1.65.69 2.5.92.43.11.86.23 1.3.32.9.19 1.6.43 2.08.73.57.37.64.73.63 1-.02.8-.65 1.3-1.35 1.52-.39.12-.8.18-1.2.17a5.95 5.95 0 0 1-2.66-.77 8.37 8.37 0 0 1-1.34-.92l-2.53 2.7a11.06 11.06 0 0 0 4.7 2.4 9 9 0 0 0 1.75.23 6.45 6.45 0 0 0 3.03-.56c1.01-.46 1.8-1.05 2.34-1.76.63-.85.97-1.87.97-2.91a4.61 4.61 0 0 0-.62-2.48 5 5 0 0 0-1.9-1.82ZM76.55 20.41h-6.4V7.31h-3.72v16.66h10.12v-3.56ZM28.62 14.97l6.55 9h2.57l4.23-7.9v7.9h3.73V7.3h-3.76l-5.79 11.03L28.64 7.3h-3.75v16.67h3.73v-9ZM89.45 20.41h-6.4V7.31h-3.72v16.66h10.12v-3.56ZM52.8 21.81l6.13-1.16 1.24 3.32h3.8L57.6 7.3H54.5l-6.3 16.67h3.78l.82-2.16Zm3.29-8.7 1.58 4.17-3.4.72 1.82-4.9ZM39.8 27.27l-6.28 16.67h3.78l.82-2.14 6.13-1.16 1.24 3.3h3.8l-6.35-16.67H39.8ZM39.6 38l1.81-4.89 1.58 4.17-3.39.72ZM20 14.84c-.9-.55-2.17-.87-3.28-1.1-.15-.05-.36-.1-.52-.13a6.3 6.3 0 0 1-2.08-.78c-.37-.26-.5-.5-.5-.91.02-.45.4-.9.95-1.14.42-.18.88-.26 1.34-.25 1.26.03 2.45.52 3.56 1.45l.11.1 2.12-3.05a9.64 9.64 0 0 0-5.68-2.14 6.95 6.95 0 0 0-2.93.56 4.81 4.81 0 0 0-3.15 4.2l-.02.21a4.62 4.62 0 0 0 2.38 4.22c.77.43 1.65.69 2.5.92.43.11.86.23 1.3.32.9.19 1.6.44 2.08.73.57.37.64.73.63 1-.02.8-.65 1.3-1.35 1.52-.39.13-.8.18-1.2.17a5.95 5.95 0 0 1-2.66-.77 8.38 8.38 0 0 1-1.34-.92l-2.53 2.7a11.05 11.05 0 0 0 4.69 2.4 9.1 9.1 0 0 0 1.75.23 6.46 6.46 0 0 0 3.04-.57c1-.46 1.8-1.05 2.34-1.76a4.96 4.96 0 0 0 .35-5.38 5 5 0 0 0-1.9-1.83Z"></path>
</svg>
