<?xml version="1.0" encoding="UTF-8"?>
<svg xmlns="http://www.w3.org/2000/svg" fill="none" viewBox="0 0 226 37">
  <path fill="#fff" d="M26.43 16.82c.07.55.09.88-.1 1.2-.5 3.76-1.68 7.22-4.44 9.95a9.37 9.37 0 0 1-6.06 2.7c-2.33.18-4.68-.07-6.92-.76-5-1.55-7.98-5.15-8.34-10.37-.28-4.02.77-7.65 3.72-10.56A9.69 9.69 0 0 1 9.2 6.45a16.91 16.91 0 0 0-2.86 4.06C4.1 15.13 4.86 19.5 8.53 23.37c1.17 1.24 1.15 1.2 2.57.32a2.74 2.74 0 0 0 1.36-2.54V6.74c0-.45-.11-.67-.54-.83-1.2-.46-2.4-.81-3.66-1a6.8 6.8 0 0 0-4.8 1.07c-1 .65-1.93 1.38-2.96 2.27.24-2.18 1-3.94 2.5-5.34C4.72 1.3 6.85.71 9.14.61c2.8-.11 5.5.45 8.16 1.26 2.74.83 5.52 1.37 8.4 1.05a9.22 9.22 0 0 0 3.26-.98c-.02.7-.29 1.23-.6 1.74C27.08 5.76 25.05 6.6 22.78 7c-1.35.25-2.73.32-4.1.19-.48-.05-.7.02-.7.6-.01 3.81-.08 7.62-.13 11.43 0 .5-.37.81-.69 1.12a27.19 27.19 0 0 1-4.28 3.16l-2.2 1.37c1.88 1.05 5.1 1.13 7.62.21 2.85-1.03 4.88-3.05 6.55-5.48.48-.7.9-1.46 1.34-2.2l.24-.58Z"></path>
  <path fill="#fff" d="M47.92 26.31c.11.16-.06.25-.16.33-1.37 1.14-2.75 2.27-4.1 3.42-.24.2-.4.22-.64 0a178.29 178.29 0 0 0-3.6-3.17c-.3-.24-.28-.51-.28-.81.01-3.64 0-7.27.04-10.9.02-1.13-.87-1.58-1.45-2.26-.14-.17-.35-.04-.5.04l-1.95 1.02c-.23.13-.18.34-.18.54-.02 3.4-.06 6.8-.04 10.21.01 1.06.96 1.41 1.74 1.8.29.13.64.13 1.09.21-1.3 1.14-2.55 2.22-3.77 3.31-.24.21-.4.21-.64 0a252.85 252.85 0 0 0-3.42-3.03.87.87 0 0 1-.31-.73l.1-17.76v-.69c-.05-1.44-.71-1.94-2.13-1.62-.17.03-.33.04-.5.04C28.6 5.1 29.92 4 31.2 2.86c.35-.3.59-.34.96-.03.57.46 1.17.89 1.8 1.27.98.6 1.33 1.48 1.33 2.57v6.2c1.6-.95 3.15-1.81 4.64-2.76.67-.43 1.2-.38 1.8.08 1.03.8 1.77 1.87 2.65 2.82.2.21.12.48.12.73v10.52c0 1.72 1.55 2.76 3.1 2.08.09-.04.17-.13.3-.03ZM61.65 15.6c-.99-1.86-1.97-3.72-2.97-5.56-.16-.3-.4-.5-.82-.37l-8.66 2.84c-.31.1-.43.26-.42.6v13.48c0 .32.1.51.37.67l4.9 2.77c.61.35 1.17.3 1.74-.17 1.65-1.39 3.34-2.74 5-4.1.16-.14.43-.2.36-.56-.66.04-1.14.47-1.64.82-.87.63-1.77.82-2.75.24-.72-.42-1.46-.82-2.2-1.2-.35-.17-.46-.4-.44-.77.04-.87.08-1.73.04-2.6-.03-.57.17-.9.65-1.22 2.18-1.4 4.32-2.84 6.47-4.28.2-.13.6-.17.37-.6Zm-4.57 2.09c-.97.76-1.91 1.55-2.98 2.43v-8l.11-.07.96 1.65 1.93 3.36c.11.2.3.38-.02.63ZM101.28 2.11c.22.2 0 .39-.07.54-1.08 2.31-3 3.57-5.4 4.2-1.56.4-3.15.48-4.76.35-.41-.04-.75-.04-.67.54.04.28-.02.56-.03.84-.02 3.68-.04 7.37-.04 11.05 0 .48-.16.72-.55.96-2.25 1.38-4.47 2.78-6.78 4.22 1.05.68 2.14.94 3.29.96 4.49.1 10.1-2.76 12.25-8.05l.3-.72c.29 1.23.16 2.29-.03 3.34-.92 5.22-4.93 9.45-10.17 10.2-4.94.72-10.73-.68-13.8-5.5-2.8-4.35-2.93-9.96-.25-13.86 1.64-2.4 3.95-3.84 6.7-4.77.04.41-.25.56-.4.75a14.47 14.47 0 0 0-3.3 6.85c-.49 3.04.4 5.71 2.2 8.13.6.77 1.24 1.48 1.95 2.14.26.24.48.36.77.08a.2.2 0 0 1 .06-.04c1.9-.8 2.5-2.19 2.43-4.23-.17-4.44-.11-8.9-.1-13.34 0-.54-.22-.75-.66-.96-3.99-1.87-7.9-1.15-10.9 2.03-.1.1-.16.26-.29.34.14-3.93 3.11-6.95 7.13-7.4 2.88-.34 5.65.1 8.4.98 3.04.98 6.15 1.55 9.37 1.16.99-.1 1.95-.35 2.88-.7.14-.06.3-.24.47-.09ZM114.27 15.54c-.99-1.8-1.94-3.62-2.91-5.42-.24-.44-.54-.56-1.07-.38-2.78.95-5.57 1.86-8.37 2.75-.39.12-.51.28-.51.68v13.41c0 .27.01.48.3.63l5.1 2.88c.54.3 1.04.23 1.54-.18l5-4.1c.19-.15.48-.24.43-.63-.67.08-1.15.49-1.65.85-.85.62-1.72.8-2.69.27a89.9 89.9 0 0 0-2.33-1.27c-.3-.15-.37-.35-.36-.67.03-.94.05-1.88.02-2.82-.02-.47.16-.72.53-.97 2.21-1.44 4.41-2.9 6.6-4.37.2-.15.63-.19.37-.66Zm-4.54 2.12-3 2.45v-8.26l3.09 5.37c.1.18.08.3-.09.44ZM123.94 26.8c-1.17 1.07-2.35 2.11-3.5 3.19-.26.24-.42.25-.7.02a151.42 151.42 0 0 0-3.53-3c-.32-.27-.3-.56-.3-.89l-.02-18.36c0-1.53-.14-1.67-1.63-1.65-.16.06-.31.11-.48.15-.09.01-.27.07-.26-.11 0-.08.16-.14.25-.21 1.28-1.09 2.55-2.17 3.81-3.27.22-.19.37-.19.57 0 1 .9 2 1.8 3.02 2.68.29.25.21.54.21.83v18.14a2.53 2.53 0 0 0 2.56 2.48ZM137.92 15.6c-1.01-1.87-2-3.75-3.03-5.61-.19-.35-.48-.41-.9-.27-2.82.95-5.64 1.88-8.46 2.77-.4.13-.5.32-.49.7v13.35c0 .33.07.56.39.73 1.61.9 3.22 1.83 4.83 2.74.63.36 1.21.34 1.81-.17 1.6-1.34 3.22-2.64 4.84-3.96.2-.17.5-.28.53-.72-.68.12-1.15.46-1.6.8-.9.71-1.85.87-2.88.29-.7-.4-1.41-.8-2.13-1.17-.36-.18-.43-.42-.42-.79.02-.94.03-1.88 0-2.82-.02-.41.12-.63.46-.85 2.25-1.47 4.49-2.97 6.72-4.47.18-.12.53-.16.33-.54Zm-4.53 2.04c-1 .8-2 1.62-3.07 2.5v-8.06l.13-.06 2.97 5.17c.1.16.16.3-.03.45ZM154.73 25.67c-.71-.47-1.07-1.02-1.06-1.94.06-3.53.02-7.06.03-10.6 0-.33.01-.61-.34-.84-1-.67-1.86-1.5-2.7-2.35-.25-.26-.45-.3-.78-.17l-9.42 3.89c-.4.16-.52.36-.52.78 0 3.99-.01 7.98-.04 11.97 0 .4.09.68.43.96 1 .8 1.96 1.63 2.89 2.49.36.33.6.37 1 .06 1.17-.9 2.37-1.76 3.57-2.6.35-.24.76-.5 1.2-.21a8.91 8.91 0 0 1 2.98 2.89c.77 1.36.78 2.7-.12 4.05a11.5 11.5 0 0 0-3.77-2.09c-2.41-.76-4.85-1.15-7.28-.07-1.53.67-3.1 2.3-3.42 3.48 4.08-1.5 7.84-.76 11.38 1.54.27.17.4.06.59-.08.62-.48 1.26-.94 1.87-1.44 1.66-1.37 3.4-2.68 4.57-4.54 1.28-2.03.9-3.87-1.06-5.18Zm-6.9 1.07c-1.5.36-2.4-.28-2.42-1.82-.03-2-.01-4-.01-6.01 0-1.95.03-3.9-.02-5.86-.02-.63.41-.72.78-.96.41-.26.58.1.8.3 1.54 1.54 1.54 1.54 1.54 3.74 0 3.25-.01 6.5.02 9.74 0 .54-.18.75-.7.87ZM170.72 12.87c-.9.78-1.83 1.54-2.77 2.28-.7.55-1.15.5-1.79-.15-.51-.52-.93-1.14-1.53-1.58-.2-.16-.42-.39-.67-.28-.26.11-.1.4-.11.61l-.31 11.11c-.02.64.3.93.8 1.14.74.3 1.54.3 2.35.4-.03.24-.25.34-.4.47-1.15 1-2.31 1.99-3.44 3.02-.39.36-.63.42-1.05.02-.97-.9-1.97-1.76-2.99-2.6a1.18 1.18 0 0 1-.47-1.03l.01-10.74c0-.49-.04-.97-.15-1.44-.28-1.14-.7-1.41-1.91-1.17 1.17-1.07 2.29-2.07 3.37-3.1.3-.28.42-.08.6.08.84.74 1.69 1.47 2.5 2.23.3.28.48.32.8.02.75-.72 1.57-1.37 2.32-2.1.39-.37.6-.46.96.07a6.1 6.1 0 0 0 1.98 1.87c.7.41 1.41.56 2.11-.03.17-.15.38-.27.67-.1-.18.43-.54.72-.88 1ZM187.78 26.5c-.13.02-.25.03-.37.06-1.6.3-2.5-.4-2.5-2.06V13.6c0-.34-.03-.62-.3-.89a80.97 80.97 0 0 1-2.72-2.68c-.3-.31-.54-.4-.97-.22-3.1 1.3-6.23 2.57-9.36 3.82-.42.17-.56.38-.56.84.03 3.33.13 6.66-.03 9.98-.1 1.95.3 3.44 2.02 4.48.37.23.7.52.97.85.46.57.85.47 1.38.08 1.18-.84 2.42-1.6 3.6-2.44.47-.33.77-.36 1.22.04 1.01.89 2.08 1.71 3.13 2.55.21.18.39.37.7.07 1.27-1.16 2.56-2.3 3.84-3.44l-.05-.13Zm-8.18-10.48c-.12 3.22-.05 6.45-.02 9.68 0 .55-.13.79-.71.9-1.68.3-2.5-.34-2.51-2.01v-5.57c0-1.93.02-3.86-.02-5.79 0-.48.18-.68.58-.82.38-.13.75-.4 1.07.08l.06.05c1.26.83 1.61 1.97 1.55 3.48ZM202.07 10.48a5.14 5.14 0 0 1-.66-.51c-.34-.33-.64-.32-1.07-.1-1.62.89-3.29 1.7-4.92 2.56-.35.18-.56.17-.86-.1-.9-.83-1.83-1.62-2.74-2.42-.2-.18-.34-.34-.63-.08-1.15 1.02-2.32 2.03-3.49 3.03.8-.15 1.22.25 1.5.87a5 5 0 0 1 .44 2.14l-.08 15.48c0 .85-.01 1.67-.8 2.23-.34.25-.18.43.09.64a223 223 0 0 1 3.45 2.64c.24.2.4.2.62-.04.96-.95 1.92-1.89 2.9-2.8.28-.27.26-.37-.05-.55-.38-.22-.71-.5-.71-1v-4.6c1.24.69 2.28 1.3 3.24 2.05 1.03.8 1.58.77 2.5-.18 1.12-1.14 2.2-2.32 3.33-3.45.34-.34.45-.69.45-1.15-.02-3.18-.17-6.37.04-9.53.16-2.35-.77-3.88-2.55-5.13Zm-3.11 14.98c0 .82-.14 1.62-.98 2-1 .43-1.88-.05-2.75-.48-.29-.14-.17-.45-.17-.7v-6.17c0-1.98.02-3.97-.02-5.95-.01-.6.2-.82.75-1.08 1.12-.54 1.92-.18 2.72.6.28.27.45.53.45.96-.02 3.6 0 7.22 0 10.82ZM225.5 26.49l-1.68 1.44c-.84.7-1.7 1.37-2.53 2.09-.34.29-.55.26-.87-.03-1.09-1-2.2-1.97-3.32-2.93a1.14 1.14 0 0 1-.43-.97V15.03c0-.48-1-1.96-1.44-2.09-.28-.09-.54.03-.79.17-.49.27-.97.56-1.47.8-.28.14-.31.34-.32.61-.02 3.39-.07 6.76-.09 10.14 0 1.08.9 1.45 1.68 1.85.32.17.72.17 1.18.26l-3.83 3.37c-.25.22-.4.09-.58-.07l-3.48-3.08c-.2-.17-.24-.34-.24-.6l.08-17.22c0-.48.04-.97 0-1.44-.13-1.35-.72-1.77-2.03-1.5-.12.02-.25.02-.56.04L209 2.7c.21-.18.36-.08.53.05.8.58 1.63 1.13 2.42 1.72.66.5.86 1.24.87 2.03v6.42c1.6-.95 3.14-1.79 4.6-2.74.76-.5 1.35-.38 1.97.14.94.79 1.67 1.77 2.5 2.67.22.24.13.53.13.8v10.6c0 1.5 1.6 2.6 3 2.04.13-.05.27-.17.49.07Z"></path>
  <path fill="#161616" d="M28.96 1.94c-.02.7-.29 1.24-.6 1.75-1.28 2.07-3.3 2.9-5.57 3.32-1.36.25-2.73.3-4.1.18-.49-.05-.7.02-.7.6-.02 3.81-.08 7.62-.13 11.43-.01.5-.37.81-.7 1.12a27.19 27.19 0 0 1-4.28 3.16l-2.2 1.37c1.88 1.05 5.11 1.13 7.62.21 2.85-1.03 4.88-3.04 6.55-5.48.49-.7.9-1.46 1.35-2.2.36.14.17.4.14.62-.5 3.76-1.69 7.22-4.45 9.95a9.37 9.37 0 0 1-6.06 2.7c-2.33.18-4.68-.07-6.92-.76-5-1.55-7.98-5.15-8.34-10.37-.28-4.02.77-7.65 3.72-10.56A9.69 9.69 0 0 1 9.2 6.45a16.91 16.91 0 0 0-2.86 4.06C4.1 15.13 4.86 19.5 8.53 23.37c1.17 1.24 1.15 1.2 2.57.32a2.74 2.74 0 0 0 1.36-2.54V6.74c0-.45-.11-.67-.54-.83-1.2-.46-2.4-.81-3.66-1a6.8 6.8 0 0 0-4.8 1.07c-1 .65-1.93 1.38-2.96 2.27.24-2.18 1-3.94 2.5-5.34C4.72 1.3 6.85.71 9.14.61c2.8-.11 5.5.45 8.16 1.26 2.74.83 5.52 1.37 8.4 1.05a9.22 9.22 0 0 0 3.26-.98ZM101.2 2.65c-1.08 2.31-3 3.57-5.39 4.2-1.56.4-3.15.48-4.76.35-.41-.03-.75-.04-.67.55.04.27-.02.55-.03.83-.02 3.68-.04 7.37-.04 11.06 0 .47-.16.71-.55.95-2.25 1.38-4.47 2.78-6.78 4.22 1.05.68 2.14.94 3.29.96 4.49.1 10.1-2.76 12.25-8.05l.3-.72c.29 1.23.16 2.3-.03 3.34-.92 5.22-4.93 9.45-10.17 10.2-4.94.72-10.73-.68-13.8-5.5-2.8-4.35-2.93-9.96-.25-13.86 1.64-2.4 3.95-3.84 6.7-4.77.04.42-.25.56-.4.75a14.47 14.47 0 0 0-3.3 6.85c-.49 3.04.4 5.71 2.2 8.13.6.77 1.24 1.48 1.95 2.14.26.24.48.36.77.08a.2.2 0 0 1 .06-.04c1.9-.8 2.5-2.19 2.43-4.23-.17-4.44-.11-8.9-.1-13.34 0-.54-.22-.75-.66-.96-3.99-1.87-7.9-1.15-10.9 2.03-.1.11-.16.26-.29.35.14-3.94 3.11-6.96 7.13-7.42 2.88-.32 5.65.11 8.4 1 3.04.97 6.15 1.54 9.37 1.16.99-.12 1.95-.36 2.88-.71.14-.06.3-.24.47-.09.22.2 0 .4-.07.54ZM154.73 25.67c-.71-.47-1.07-1.02-1.06-1.94.06-3.53.02-7.06.03-10.6 0-.33.01-.61-.34-.84-1-.67-1.86-1.5-2.7-2.35-.25-.26-.45-.3-.78-.17l-9.42 3.89c-.4.16-.52.36-.52.78 0 3.99-.01 7.98-.04 11.97 0 .4.09.68.43.96 1 .8 1.96 1.63 2.89 2.49.36.33.6.37 1 .06 1.17-.9 2.37-1.76 3.57-2.6.35-.24.76-.5 1.2-.21a8.91 8.91 0 0 1 2.98 2.89c.77 1.36.78 2.7-.12 4.05a11.5 11.5 0 0 0-3.77-2.09c-2.41-.76-4.85-1.15-7.28-.07-1.53.67-3.1 2.3-3.42 3.48 4.08-1.5 7.84-.76 11.38 1.54.27.17.4.06.59-.08.62-.48 1.26-.94 1.87-1.44 1.66-1.37 3.4-2.68 4.57-4.54 1.28-2.03.9-3.87-1.06-5.18Zm-6.9 1.07c-1.5.36-2.4-.28-2.42-1.82-.03-2-.01-4-.01-6.01 0-1.95.03-3.9-.02-5.86-.02-.63.41-.72.78-.96.41-.26.58.1.8.3 1.54 1.54 1.54 1.54 1.54 3.74 0 3.25-.01 6.5.02 9.74 0 .54-.18.75-.7.87ZM202.07 10.48a5.14 5.14 0 0 1-.66-.51c-.34-.33-.64-.32-1.07-.1-1.62.89-3.29 1.7-4.92 2.56-.35.18-.56.17-.86-.1-.9-.83-1.83-1.62-2.74-2.42-.2-.18-.34-.34-.63-.08-1.15 1.02-2.32 2.03-3.49 3.03.8-.15 1.22.25 1.5.87a5 5 0 0 1 .44 2.14l-.08 15.48c0 .85-.01 1.67-.8 2.23-.34.25-.18.43.09.64a223 223 0 0 1 3.45 2.64c.24.2.4.2.62-.04.96-.95 1.92-1.89 2.9-2.8.28-.27.26-.37-.05-.55-.38-.22-.71-.5-.71-1v-4.6c1.24.69 2.28 1.3 3.24 2.05 1.03.8 1.58.77 2.5-.18 1.12-1.14 2.2-2.32 3.33-3.45.34-.34.45-.69.45-1.15-.02-3.18-.17-6.37.04-9.53.16-2.35-.77-3.88-2.55-5.13Zm-3.11 14.98c0 .82-.14 1.62-.98 2-1 .43-1.88-.05-2.75-.48-.29-.14-.17-.45-.17-.7v-6.17c0-1.98.02-3.97-.02-5.95-.01-.6.2-.82.75-1.08 1.12-.54 1.92-.18 2.72.6.28.27.45.53.45.96-.02 3.6 0 7.22 0 10.82ZM225.5 26.49l-1.68 1.44c-.84.7-1.7 1.37-2.53 2.09-.34.29-.55.26-.87-.03-1.09-1-2.2-1.97-3.32-2.93a1.14 1.14 0 0 1-.43-.97V15.03c0-.48-1-1.96-1.44-2.09-.28-.09-.54.03-.79.17-.49.27-.97.56-1.47.8-.28.14-.31.34-.32.61-.02 3.39-.07 6.76-.09 10.14 0 1.08.9 1.45 1.68 1.85.32.17.72.17 1.18.26l-3.83 3.37c-.25.22-.4.09-.58-.07l-3.48-3.08c-.2-.17-.24-.34-.24-.6l.08-17.22c0-.48.04-.97 0-1.44-.13-1.35-.72-1.77-2.03-1.5-.12.02-.25.02-.56.04L209 2.7c.21-.18.36-.08.53.05.8.58 1.63 1.13 2.42 1.72.66.5.86 1.24.87 2.03v6.42c1.6-.95 3.14-1.79 4.6-2.74.76-.5 1.35-.38 1.97.14.94.79 1.67 1.77 2.5 2.67.22.24.13.53.13.8v10.6c0 1.5 1.6 2.6 3 2.04.13-.05.27-.17.49.07Z"></path>
  <path fill="#161616" d="M47.76 26.64c-1.37 1.14-2.75 2.27-4.1 3.42-.24.2-.4.22-.64 0a178.29 178.29 0 0 0-3.6-3.17c-.3-.24-.28-.51-.28-.81.01-3.64 0-7.27.04-10.9.02-1.13-.87-1.58-1.45-2.26-.14-.17-.35-.04-.5.04l-1.95 1.02c-.23.13-.18.34-.18.54-.02 3.4-.06 6.8-.04 10.21.01 1.06.96 1.41 1.74 1.8.29.13.64.13 1.09.21-1.3 1.14-2.55 2.22-3.77 3.31-.24.21-.4.21-.64 0a252.85 252.85 0 0 0-3.42-3.03.87.87 0 0 1-.31-.73l.1-17.76v-.69c-.05-1.44-.71-1.94-2.13-1.62-.17.03-.33.04-.5.04C28.6 5.1 29.92 4 31.2 2.86c.35-.3.59-.34.96-.03.57.46 1.17.89 1.8 1.27.98.6 1.33 1.48 1.33 2.57v6.2c1.6-.95 3.15-1.81 4.64-2.76.67-.43 1.2-.38 1.8.08 1.03.8 1.77 1.87 2.65 2.82.2.21.12.48.12.73v10.52c0 1.72 1.55 2.76 3.1 2.08.09-.04.16-.13.3-.03.12.16-.05.25-.15.33ZM187.78 26.5c-.13.02-.25.03-.37.06-1.6.3-2.5-.4-2.5-2.06V13.6c0-.34-.03-.62-.3-.89a80.97 80.97 0 0 1-2.72-2.68c-.3-.31-.54-.4-.97-.22-3.1 1.3-6.23 2.57-9.36 3.82-.42.17-.56.38-.56.84.03 3.33.13 6.66-.03 9.98-.1 1.95.3 3.44 2.02 4.48.37.23.7.52.97.85.46.57.85.47 1.38.08 1.18-.84 2.42-1.6 3.6-2.44.47-.33.77-.36 1.22.04 1.01.89 2.08 1.71 3.13 2.55.21.18.39.37.7.07 1.27-1.16 2.56-2.3 3.84-3.44l-.05-.13Zm-8.18-10.48c-.12 3.22-.05 6.45-.02 9.68 0 .55-.13.79-.71.9-1.68.3-2.5-.34-2.51-2.01v-5.57c0-1.93.02-3.86-.02-5.79 0-.48.18-.68.58-.82.38-.13.75-.4 1.07.08l.06.05c1.26.83 1.61 1.97 1.55 3.48ZM61.65 15.6c-.99-1.86-1.97-3.72-2.97-5.56-.16-.3-.4-.5-.82-.37l-8.66 2.84c-.31.1-.43.26-.42.6v13.48c0 .32.1.51.37.67l4.9 2.77c.61.35 1.17.3 1.74-.17 1.65-1.39 3.34-2.74 5-4.1.16-.14.43-.2.36-.56-.66.04-1.14.47-1.64.82-.87.63-1.77.82-2.75.24-.72-.42-1.46-.82-2.2-1.2-.35-.17-.46-.4-.44-.77.04-.87.08-1.73.04-2.6-.03-.57.17-.9.65-1.22 2.18-1.4 4.32-2.84 6.47-4.28.2-.13.6-.17.37-.6Zm-4.57 2.09c-.97.76-1.91 1.55-2.98 2.43v-8l.11-.07.96 1.65 1.93 3.36c.11.2.3.38-.02.63ZM137.92 15.6c-1.01-1.87-2-3.75-3.03-5.61-.19-.35-.48-.41-.9-.27-2.82.95-5.64 1.88-8.46 2.77-.4.13-.5.32-.49.7v13.35c0 .33.07.56.39.73 1.61.9 3.22 1.83 4.83 2.74.63.36 1.21.34 1.81-.17 1.6-1.34 3.22-2.64 4.84-3.96.2-.17.5-.28.53-.72-.68.12-1.15.46-1.6.8-.9.71-1.85.87-2.88.29-.7-.4-1.41-.8-2.13-1.17-.36-.18-.43-.42-.42-.79.02-.94.03-1.88 0-2.82-.02-.41.12-.63.46-.85 2.25-1.47 4.49-2.97 6.72-4.47.18-.12.53-.16.33-.54Zm-4.53 2.04c-1 .8-2 1.62-3.07 2.5v-8.06l.13-.06 2.97 5.17c.1.16.16.3-.03.45ZM114.27 15.54c-.99-1.8-1.94-3.62-2.91-5.42-.24-.44-.54-.56-1.07-.38-2.78.95-5.57 1.86-8.37 2.75-.39.12-.51.28-.51.68v13.41c0 .27.01.48.3.63l5.1 2.88c.54.3 1.04.23 1.54-.18l5-4.1c.19-.15.48-.24.43-.63-.67.08-1.15.49-1.65.85-.85.62-1.72.8-2.69.27a89.9 89.9 0 0 0-2.33-1.27c-.3-.15-.37-.35-.36-.67.03-.94.05-1.88.02-2.82-.02-.47.16-.72.53-.97 2.21-1.44 4.41-2.9 6.6-4.37.2-.15.63-.19.37-.66Zm-4.54 2.12-3 2.45v-8.26l3.09 5.37c.1.18.08.3-.09.44ZM123.94 26.8c-1.17 1.07-2.35 2.11-3.5 3.19-.25.24-.42.25-.7.02a151.42 151.42 0 0 0-3.53-3c-.32-.27-.3-.56-.3-.89l-.02-18.36c0-1.53-.14-1.67-1.63-1.65-.2.04-.45.22-.49-.17 1.28-1.09 2.55-2.17 3.81-3.27.22-.19.37-.19.57 0 1 .9 2 1.8 3.02 2.68.29.25.21.54.21.83v18.14a2.53 2.53 0 0 0 2.56 2.48ZM171.6 11.87c-.18.43-.54.72-.88 1-.9.78-1.83 1.54-2.77 2.28-.7.55-1.15.5-1.79-.15-.51-.52-.93-1.14-1.53-1.58-.2-.16-.42-.39-.67-.28-.26.11-.1.4-.11.61l-.31 11.11c-.02.64.3.93.8 1.14.74.3 1.54.3 2.35.4-.03.24-.25.34-.4.47-1.15 1-2.31 1.99-3.44 3.02-.39.36-.63.42-1.05.02-.97-.9-1.97-1.76-2.99-2.6a1.18 1.18 0 0 1-.47-1.03l.01-10.74c0-.49-.04-.97-.15-1.44-.28-1.14-.7-1.41-1.91-1.17 1.17-1.07 2.29-2.07 3.37-3.1.3-.28.42-.08.6.08.84.74 1.69 1.47 2.5 2.23.3.28.48.32.8.02.75-.72 1.57-1.37 2.32-2.1.39-.37.6-.46.96.07a6.1 6.1 0 0 0 1.98 1.87c.7.41 1.41.56 2.11-.03.17-.15.38-.27.67-.1Z"></path>
</svg>
