<svg width="102" height="50" viewBox="0 0 102 50" fill="none" xmlns="http://www.w3.org/2000/svg">
<path d="M62.99 37.95L55.11 27.27H51.56V43.94H55.26V34.04L62.62 43.94H66.55V27.27H62.99V37.95ZM80.8 30.78H77.1V43.94H73.54V30.78H69.84V27.28H80.8V30.78ZM21.99 30.77H24.56V40.43H22V43.93H30.72V40.43H28.15L28.13 30.77H30.73V27.27H22V30.77H21.99ZM18.25 33.51H11.32V36.9H14.99L15.39 39.5C14.5906 40.169 13.6087 40.5823 12.5715 40.6863C11.5343 40.7903 10.4898 40.5802 9.57353 40.0833C8.65724 39.5863 7.91145 38.8255 7.43294 37.8994C6.95442 36.9734 6.76525 35.9249 6.88999 34.89C7.04883 33.6414 7.65943 32.4942 8.60645 31.6651C9.55348 30.836 10.7713 30.3824 12.03 30.39C13.13 30.37 14.22 30.71 15.11 31.36L17.49 28.69C15.9351 27.4612 14.0118 26.7919 12.03 26.79C9.71501 26.8146 7.50252 27.7485 5.86999 29.39C4.64602 30.6084 3.8114 32.1628 3.47197 33.8562C3.13254 35.5495 3.30359 37.3055 3.96342 38.9016C4.62325 40.4976 5.74215 41.8617 7.17824 42.821C8.61434 43.7803 10.303 44.2916 12.03 44.29C13.4118 44.2772 14.7719 43.9447 16.0037 43.3184C17.2355 42.692 18.3056 41.789 19.13 40.68L19.31 40.47L18.27 33.54L18.25 33.51ZM93.35 34.75C92.45 34.2 91.19 33.88 90.07 33.65L89.55 33.51C88.8163 33.3794 88.1119 33.1186 87.47 32.74C87.1 32.48 86.97 32.24 86.98 31.82C86.99 31.38 87.37 30.92 87.92 30.68C88.35 30.51 88.81 30.43 89.27 30.44C90.52 30.47 91.72 30.96 92.82 31.89L92.94 31.99L95.06 28.94C93.447 27.6313 91.4552 26.8774 89.38 26.79C88.3702 26.7644 87.367 26.9589 86.44 27.36C85.5645 27.6796 84.8007 28.2467 84.2414 28.9923C83.6822 29.738 83.3517 30.63 83.29 31.56L83.28 31.76C83.2462 32.6138 83.4498 33.4602 83.8682 34.2052C84.2866 34.9502 84.9034 35.5645 85.65 35.98C86.42 36.41 87.3 36.67 88.15 36.9C88.58 37.01 89.01 37.13 89.45 37.22C90.35 37.41 91.05 37.65 91.53 37.95C92.1 38.32 92.17 38.68 92.16 38.95C92.14 39.75 91.51 40.25 90.81 40.47C90.42 40.59 90.01 40.65 89.61 40.64C88.6751 40.5961 87.7638 40.3323 86.95 39.87C86.4745 39.6075 86.0258 39.2994 85.61 38.95L83.08 41.65C84.4301 42.8175 86.0426 43.641 87.78 44.05C88.3544 44.1838 88.9405 44.2609 89.53 44.28C90.5704 44.3409 91.6101 44.1487 92.56 43.72C93.57 43.26 94.36 42.67 94.9 41.96C95.53 41.11 95.87 40.09 95.87 39.05C95.9012 38.1814 95.6863 37.3217 95.25 36.57C94.7905 35.8046 94.1344 35.1762 93.35 34.75ZM76.55 20.41H70.15V7.31H66.43V23.97H76.55V20.41ZM28.62 14.97L35.17 23.97H37.74L41.97 16.07V23.97H45.7V7.3H41.94L36.15 18.33L28.64 7.3H24.89V23.97H28.62V14.97ZM89.45 20.41H83.05V7.31H79.33V23.97H89.45V20.41ZM52.8 21.81L58.93 20.65L60.17 23.97H63.97L57.6 7.3H54.5L48.2 23.97H51.98L52.8 21.81ZM56.09 13.11L57.67 17.28L54.27 18L56.09 13.1V13.11ZM39.8 27.27L33.52 43.94H37.3L38.12 41.8L44.25 40.64L45.49 43.94H49.29L42.94 27.27H39.8ZM39.6 38L41.41 33.11L42.99 37.28L39.6 38ZM20 14.84C19.1 14.29 17.83 13.97 16.72 13.74C16.57 13.69 16.36 13.64 16.2 13.61C15.4659 13.4753 14.7617 13.2111 14.12 12.83C13.75 12.57 13.62 12.33 13.62 11.92C13.64 11.47 14.02 11.02 14.57 10.78C14.99 10.6 15.45 10.52 15.91 10.53C17.17 10.56 18.36 11.05 19.47 11.98L19.58 12.08L21.7 9.03C20.0865 7.72366 18.0944 6.97311 16.02 6.89C15.0143 6.8624 14.0146 7.05346 13.09 7.45C12.2145 7.76961 11.4507 8.33671 10.8914 9.08234C10.3322 9.82797 10.0017 10.72 9.93999 11.65L9.91999 11.86C9.88713 12.7148 10.0922 13.5619 10.5125 14.307C10.9327 15.0521 11.5515 15.6659 12.3 16.08C13.07 16.51 13.95 16.77 14.8 17C15.23 17.11 15.66 17.23 16.1 17.32C17 17.51 17.7 17.76 18.18 18.05C18.75 18.42 18.82 18.78 18.81 19.05C18.79 19.85 18.16 20.35 17.46 20.57C17.07 20.7 16.66 20.75 16.26 20.74C15.3251 20.6961 14.4138 20.4323 13.6 19.97C13.1246 19.7075 12.6758 19.3994 12.26 19.05L9.72999 21.75C11.077 22.9164 12.686 23.7398 14.42 24.15C14.9945 24.2832 15.5806 24.3602 16.17 24.38C17.2145 24.439 18.2578 24.2434 19.21 23.81C20.21 23.35 21.01 22.76 21.55 22.05C22.1209 21.2825 22.4577 20.3663 22.5198 19.4117C22.5819 18.4572 22.3666 17.505 21.9 16.67C21.4419 15.9009 20.7857 15.2689 20 14.84Z" fill="white"/>
</svg>
